<svg width="24" height="24" viewBox="0 0 24 24" fill="none" xmlns="http://www.w3.org/2000/svg">
<path d="M9.1703 11.2899L13.4103 7.04995C13.5033 6.95622 13.6139 6.88183 13.7357 6.83106C13.8576 6.78029 13.9883 6.75415 14.1203 6.75415C14.2523 6.75415 14.383 6.78029 14.5049 6.83106C14.6267 6.88183 14.7373 6.95622 14.8303 7.04995C15.0166 7.23731 15.1211 7.49076 15.1211 7.75495C15.1211 8.01913 15.0166 8.27259 14.8303 8.45995L11.2903 11.9999L14.8303 15.5399C15.0166 15.7273 15.1211 15.9808 15.1211 16.2449C15.1211 16.5091 15.0166 16.7626 14.8303 16.9499C14.7369 17.0426 14.626 17.116 14.5042 17.1657C14.3824 17.2155 14.2519 17.2407 14.1203 17.2399C13.9887 17.2407 13.8582 17.2155 13.7364 17.1657C13.6146 17.116 13.5037 17.0426 13.4103 16.9499L9.1703 12.7099C9.07657 12.617 9.00218 12.5064 8.95141 12.3845C8.90064 12.2627 8.8745 12.132 8.8745 11.9999C8.8745 11.8679 8.90064 11.7372 8.95141 11.6154C9.00218 11.4935 9.07657 11.3829 9.1703 11.2899Z" fill="#C1C2C3"/>
</svg>
