<svg width="24" height="24" viewBox="0 0 24 24" fill="none" xmlns="http://www.w3.org/2000/svg">
<path fill-rule="evenodd" clip-rule="evenodd" d="M12 22C17.5228 22 22 17.5228 22 12C22 6.47715 17.5228 2 12 2C6.47715 2 2 6.47715 2 12C2 17.5228 6.47715 22 12 22ZM14.7201 8.79006L10.4301 13.0901L8.78005 11.4401C8.6904 11.3354 8.58009 11.2504 8.45602 11.1903C8.33196 11.1303 8.19682 11.0966 8.0591 11.0913C7.92139 11.0859 7.78405 11.1091 7.65573 11.1594C7.5274 11.2097 7.41086 11.286 7.3134 11.3834C7.21595 11.4809 7.13969 11.5974 7.08941 11.7257C7.03914 11.8541 7.01593 11.9914 7.02125 12.1291C7.02657 12.2668 7.0603 12.402 7.12033 12.526C7.18035 12.6501 7.26537 12.7604 7.37005 12.8501L9.72005 15.2101C9.81349 15.3027 9.92431 15.3761 10.0461 15.4258C10.168 15.4756 10.2984 15.5008 10.4301 15.5001C10.6924 15.499 10.9438 15.3948 11.1301 15.2101L16.1301 10.2101C16.2238 10.1171 16.2982 10.0065 16.3489 9.88464C16.3997 9.76278 16.4258 9.63207 16.4258 9.50006C16.4258 9.36805 16.3997 9.23734 16.3489 9.11548C16.2982 8.99362 16.2238 8.88302 16.1301 8.79006C15.9427 8.60381 15.6892 8.49927 15.4251 8.49927C15.1609 8.49927 14.9074 8.60381 14.7201 8.79006Z" fill="#5500DD"/>
</svg>
