<svg width="100" height="100" viewBox="0 0 100 100" fill="none" xmlns="http://www.w3.org/2000/svg">
<path d="M50.0019 66.6667C49.1778 66.6667 48.3722 66.911 47.687 67.3689C47.0018 67.8267 46.4678 68.4775 46.1524 69.2388C45.837 70.0002 45.7545 70.838 45.9153 71.6462C46.0761 72.4545 46.4729 73.1969 47.0556 73.7796C47.6383 74.3623 48.3808 74.7592 49.189 74.9199C49.9973 75.0807 50.8351 74.9982 51.5964 74.6828C52.3578 74.3675 53.0085 73.8334 53.4664 73.1482C53.9242 72.463 54.1686 71.6574 54.1686 70.8333C54.1686 69.7283 53.7296 68.6684 52.9482 67.887C52.1668 67.1056 51.107 66.6667 50.0019 66.6667ZM94.4602 72.7917L60.9186 14.4583C59.8344 12.5146 58.251 10.8956 56.3319 9.76861C54.4127 8.64157 52.2275 8.04736 50.0019 8.04736C47.7763 8.04736 45.5911 8.64157 43.6719 9.76861C41.7528 10.8956 40.1694 12.5146 39.0852 14.4583L5.7519 72.7917C4.63022 74.6834 4.02749 76.8376 4.00458 79.0367C3.98168 81.2359 4.53939 83.4022 5.62142 85.3169C6.70346 87.2316 8.2715 88.8269 10.1672 89.9418C12.063 91.0567 14.2193 91.6516 16.4186 91.6666H83.5852C85.8021 91.6885 87.9849 91.1204 89.9098 90.0205C91.8348 88.9206 93.4325 87.3285 94.5393 85.4076C95.6461 83.4866 96.2221 81.3059 96.2082 79.0889C96.1943 76.872 95.591 74.6986 94.4602 72.7917ZM87.2519 81.125C86.8867 81.7748 86.3538 82.3147 85.7089 82.6885C85.064 83.0622 84.3306 83.2561 83.5852 83.25H16.4186C15.6732 83.2561 14.9398 83.0622 14.2949 82.6885C13.65 82.3147 13.1171 81.7748 12.7519 81.125C12.3862 80.4916 12.1937 79.7731 12.1937 79.0416C12.1937 78.3102 12.3862 77.5917 12.7519 76.9583L46.0852 18.625C46.4349 17.9425 46.9661 17.3697 47.6204 16.9698C48.2747 16.5698 49.0267 16.3582 49.7936 16.3582C50.5604 16.3582 51.3124 16.5698 51.9667 16.9698C52.621 17.3697 53.1522 17.9425 53.5019 18.625L87.0436 76.9583C87.457 77.5826 87.6945 78.3068 87.7311 79.0547C87.7678 79.8026 87.6023 80.5466 87.2519 81.2083V81.125ZM50.0019 33.3333C48.8968 33.3333 47.837 33.7723 47.0556 34.5537C46.2742 35.3351 45.8352 36.3949 45.8352 37.5V54.1667C45.8352 55.2717 46.2742 56.3315 47.0556 57.1129C47.837 57.8943 48.8968 58.3333 50.0019 58.3333C51.107 58.3333 52.1668 57.8943 52.9482 57.1129C53.7296 56.3315 54.1686 55.2717 54.1686 54.1667V37.5C54.1686 36.3949 53.7296 35.3351 52.9482 34.5537C52.1668 33.7723 51.107 33.3333 50.0019 33.3333Z" fill="#5500DD"/>
</svg>
