<svg width="58" height="78" viewBox="0 0 58 78" fill="none" xmlns="http://www.w3.org/2000/svg">
<rect width="58" height="78" rx="9" fill="#797A7B"/>
<path d="M36 18H22C21.2044 18 20.4413 18.3161 19.8787 18.8787C19.3161 19.4413 19 20.2044 19 21V35C19 35.7956 19.3161 36.5587 19.8787 37.1213C20.4413 37.6839 21.2044 38 22 38H36C36.1645 37.9977 36.3284 37.981 36.49 37.95L36.79 37.88H36.91L37.28 37.74L37.41 37.67C37.51 37.61 37.62 37.56 37.72 37.49C37.8535 37.3918 37.9805 37.2849 38.1 37.17L38.17 37.08C38.2682 36.9805 38.3585 36.8735 38.44 36.76L38.53 36.63C38.5998 36.5187 38.6601 36.4016 38.71 36.28C38.7374 36.232 38.7609 36.1818 38.78 36.13C38.83 36.01 38.86 35.88 38.9 35.75V35.6C38.9567 35.4046 38.9903 35.2032 39 35V21C39 20.2044 38.6839 19.4413 38.1213 18.8787C37.5587 18.3161 36.7956 18 36 18ZM22 36C21.7348 36 21.4804 35.8946 21.2929 35.7071C21.1054 35.5196 21 35.2652 21 35V30.69L24.29 27.39C24.383 27.2963 24.4936 27.2219 24.6154 27.1711C24.7373 27.1203 24.868 27.0942 25 27.0942C25.132 27.0942 25.2627 27.1203 25.3846 27.1711C25.5064 27.2219 25.617 27.2963 25.71 27.39L34.31 36H22ZM37 35C36.9991 35.1233 36.9753 35.2453 36.93 35.36C36.9071 35.4087 36.8804 35.4556 36.85 35.5C36.8232 35.5423 36.7931 35.5825 36.76 35.62L31.41 30.27L32.29 29.39C32.383 29.2963 32.4936 29.2219 32.6154 29.1711C32.7373 29.1203 32.868 29.0942 33 29.0942C33.132 29.0942 33.2627 29.1203 33.3846 29.1711C33.5064 29.2219 33.617 29.2963 33.71 29.39L37 32.69V35ZM37 29.86L35.12 28C34.5477 27.457 33.7889 27.1543 33 27.1543C32.2111 27.1543 31.4523 27.457 30.88 28L30 28.88L27.12 26C26.5477 25.457 25.7889 25.1543 25 25.1543C24.2111 25.1543 23.4523 25.457 22.88 26L21 27.86V21C21 20.7348 21.1054 20.4804 21.2929 20.2929C21.4804 20.1054 21.7348 20 22 20H36C36.2652 20 36.5196 20.1054 36.7071 20.2929C36.8946 20.4804 37 20.7348 37 21V29.86ZM30.5 22C30.2033 22 29.9133 22.088 29.6666 22.2528C29.42 22.4176 29.2277 22.6519 29.1142 22.926C29.0006 23.2001 28.9709 23.5017 29.0288 23.7926C29.0867 24.0836 29.2296 24.3509 29.4393 24.5607C29.6491 24.7704 29.9164 24.9133 30.2074 24.9712C30.4983 25.0291 30.7999 24.9994 31.074 24.8858C31.3481 24.7723 31.5824 24.58 31.7472 24.3334C31.912 24.0867 32 23.7967 32 23.5C32 23.1022 31.842 22.7206 31.5607 22.4393C31.2794 22.158 30.8978 22 30.5 22Z" fill="white"/>
<path d="M21.5636 51.24V44.31H19.7156V47.152H17.6576C17.5643 46.8067 17.415 46.494 17.2096 46.214C17.0043 45.9247 16.757 45.682 16.4676 45.486C16.1876 45.2807 15.8656 45.122 15.5016 45.01C15.1376 44.898 14.7503 44.842 14.3396 44.842C13.8543 44.842 13.4063 44.9213 12.9956 45.08C12.585 45.2293 12.2256 45.4393 11.9176 45.71C11.619 45.9807 11.381 46.3073 11.2036 46.69C11.0356 47.0633 10.9516 47.474 10.9516 47.922C10.9516 48.37 11.0356 48.7853 11.2036 49.168C11.381 49.5413 11.619 49.8633 11.9176 50.134C12.2256 50.4047 12.585 50.6193 12.9956 50.778C13.4063 50.9273 13.8543 51.002 14.3396 51.002C14.7503 51.002 15.1376 50.946 15.5016 50.834C15.875 50.7127 16.2063 50.5493 16.4956 50.344C16.7943 50.1387 17.0416 49.8913 17.2376 49.602C17.443 49.3127 17.5876 48.9953 17.6716 48.65H19.7156V51.24H21.5636ZM14.3396 49.462C13.8636 49.462 13.4716 49.3267 13.1636 49.056C12.865 48.7853 12.7156 48.4073 12.7156 47.922C12.7156 47.4367 12.865 47.0587 13.1636 46.788C13.4716 46.5173 13.8636 46.382 14.3396 46.382C14.8156 46.382 15.2076 46.5173 15.5156 46.788C15.8236 47.0587 15.9776 47.4367 15.9776 47.922C15.9776 48.4073 15.8236 48.7853 15.5156 49.056C15.2076 49.3267 14.8156 49.462 14.3396 49.462ZM21.5636 51.8H19.7296V53.032H14.8576V51.8H13.0236V57.05H21.5636V51.8ZM14.8576 54.432H19.7296V55.594H14.8576V54.432ZM35.3385 55.79V54.278H30.4105V52.36H34.3165V50.876H26.8405V49.434H34.0225V45.136H24.9925V46.606H32.2025V47.992H25.0065V52.36H28.5625V54.278H23.6625V55.79H35.3385ZM37.8995 51.73H46.9715V50.26H39.7475V46.872H46.8735V45.374H37.8995V51.73ZM48.2175 55.664V54.152H36.5415V55.664H48.2175Z" fill="white"/>
</svg>
