<svg width="32" height="32" viewBox="0 0 32 32" fill="none" xmlns="http://www.w3.org/2000/svg">
<path d="M26.6545 2.66943C26.3008 2.66943 25.9617 2.80991 25.7117 3.05996C25.4616 3.31001 25.3211 3.64914 25.3211 4.00277V4.8521C24.1966 6.24631 22.7753 7.37224 21.1607 8.14791C19.5462 8.92359 17.779 9.3295 15.9878 9.3361H7.98779C6.92725 9.33716 5.91045 9.75893 5.16054 10.5088C4.41062 11.2588 3.98885 12.2756 3.98779 13.3361V16.0028C3.98885 17.0633 4.41062 18.0801 5.16054 18.83C5.91045 19.5799 6.92725 20.0017 7.98779 20.0028H8.63313L5.42913 27.4774C5.34215 27.6803 5.30691 27.9016 5.32657 28.1215C5.34623 28.3414 5.42018 28.553 5.54178 28.7372C5.66338 28.9214 5.82882 29.0726 6.02325 29.1771C6.21769 29.2817 6.43504 29.3363 6.65579 29.3361H11.9891C12.2498 29.336 12.5048 29.2594 12.7223 29.1157C12.9399 28.9721 13.1106 28.7678 13.2131 28.5281L16.8451 20.0534C18.4859 20.1739 20.0846 20.6295 21.5424 21.392C23.0002 22.1545 24.2863 23.2078 25.3211 24.4868V25.3361C25.3211 25.6897 25.4616 26.0289 25.7117 26.2789C25.9617 26.529 26.3008 26.6694 26.6545 26.6694C27.0081 26.6694 27.3472 26.529 27.5973 26.2789C27.8473 26.0289 27.9878 25.6897 27.9878 25.3361V4.00277C27.9878 3.64914 27.8473 3.31001 27.5973 3.05996C27.3472 2.80991 27.0081 2.66943 26.6545 2.66943ZM7.98779 17.3361C7.63417 17.3361 7.29503 17.1956 7.04498 16.9456C6.79494 16.6955 6.65446 16.3564 6.65446 16.0028V13.3361C6.65446 12.9825 6.79494 12.6433 7.04498 12.3933C7.29503 12.1432 7.63417 12.0028 7.98779 12.0028H9.32113V17.3361H7.98779ZM11.1091 26.6694H8.67713L11.5331 20.0028H13.9665L11.1091 26.6694ZM25.3225 20.6988C22.6935 18.5329 19.3954 17.3446 15.9891 17.3361H11.9891V12.0028H15.9891C19.3954 11.9942 22.6934 10.8059 25.3225 8.6401V20.6988Z" fill="white"/>
</svg>
