<svg width="32" height="32" viewBox="0 0 32 32" fill="none" xmlns="http://www.w3.org/2000/svg">
<path d="M15.9999 2.66675C13.4139 2.67166 10.8851 3.4285 8.72154 4.84507C6.558 6.26164 4.8531 8.2768 3.81449 10.6451C2.77588 13.0134 2.4484 15.6326 2.87194 18.1838C3.29547 20.7349 4.45174 23.1078 6.1999 25.0134C7.44847 26.3668 8.96382 27.4469 10.6505 28.1857C12.3371 28.9245 14.1585 29.3059 15.9999 29.3059C17.8413 29.3059 19.6627 28.9245 21.3493 28.1857C23.036 27.4469 24.5513 26.3668 25.7999 25.0134C27.5481 23.1078 28.7043 20.7349 29.1279 18.1838C29.5514 15.6326 29.2239 13.0134 28.1853 10.6451C27.1467 8.2768 25.4418 6.26164 23.2783 4.84507C21.1147 3.4285 18.5859 2.67166 15.9999 2.66675ZM15.9999 26.6667C13.2379 26.6626 10.5851 25.5871 8.5999 23.6667C9.20263 22.1995 10.2279 20.9445 11.5456 20.0613C12.8632 19.1781 14.4136 18.7065 15.9999 18.7065C17.5862 18.7065 19.1366 19.1781 20.4542 20.0613C21.7719 20.9445 22.7972 22.1995 23.3999 23.6667C21.4147 25.5871 18.7619 26.6626 15.9999 26.6667ZM13.3332 13.3334C13.3332 12.806 13.4896 12.2904 13.7826 11.8519C14.0757 11.4134 14.4921 11.0716 14.9794 10.8697C15.4667 10.6679 16.0029 10.6151 16.5201 10.718C17.0374 10.8209 17.5126 11.0749 17.8855 11.4478C18.2585 11.8207 18.5124 12.2959 18.6153 12.8132C18.7182 13.3305 18.6654 13.8666 18.4636 14.3539C18.2617 14.8412 17.92 15.2577 17.4814 15.5507C17.0429 15.8437 16.5273 16.0001 15.9999 16.0001C15.2927 16.0001 14.6144 15.7191 14.1143 15.219C13.6142 14.7189 13.3332 14.0407 13.3332 13.3334ZM25.2132 21.3334C24.0219 19.2958 22.1884 17.7108 19.9999 16.8267C20.6788 16.057 21.1211 15.1076 21.2739 14.0927C21.4266 13.0777 21.2832 12.0402 20.8609 11.1047C20.4386 10.1693 19.7553 9.37549 18.8931 8.8187C18.0309 8.26191 17.0263 7.96575 15.9999 7.96575C14.9735 7.96575 13.9689 8.26191 13.1067 8.8187C12.2445 9.37549 11.5612 10.1693 11.1389 11.1047C10.7166 12.0402 10.5732 13.0777 10.7259 14.0927C10.8787 15.1076 11.321 16.057 11.9999 16.8267C9.81137 17.7108 7.97786 19.2958 6.78657 21.3334C5.83716 19.7162 5.33553 17.8754 5.33324 16.0001C5.33324 13.1711 6.45704 10.458 8.45743 8.45761C10.4578 6.45722 13.1709 5.33341 15.9999 5.33341C18.8289 5.33341 21.542 6.45722 23.5424 8.45761C25.5428 10.458 26.6666 13.1711 26.6666 16.0001C26.6643 17.8754 26.1626 19.7162 25.2132 21.3334Z" fill="white"/>
</svg>
