<svg width="32" height="32" viewBox="0 0 32 32" fill="none" xmlns="http://www.w3.org/2000/svg">
<path d="M15.9998 18.6667C16.2635 18.6667 16.5213 18.5885 16.7406 18.442C16.9599 18.2955 17.1308 18.0873 17.2317 17.8437C17.3326 17.6 17.359 17.3319 17.3076 17.0733C17.2561 16.8147 17.1291 16.5771 16.9426 16.3906C16.7562 16.2041 16.5186 16.0771 16.26 16.0257C16.0013 15.9743 15.7332 16.0007 15.4896 16.1016C15.246 16.2025 15.0377 16.3734 14.8912 16.5927C14.7447 16.8119 14.6665 17.0697 14.6665 17.3334C14.6665 17.687 14.807 18.0262 15.057 18.2762C15.3071 18.5263 15.6462 18.6667 15.9998 18.6667ZM22.6665 18.6667C22.9302 18.6667 23.188 18.5885 23.4073 18.442C23.6265 18.2955 23.7974 18.0873 23.8983 17.8437C23.9993 17.6 24.0257 17.3319 23.9742 17.0733C23.9228 16.8147 23.7958 16.5771 23.6093 16.3906C23.4228 16.2041 23.1853 16.0771 22.9266 16.0257C22.668 15.9743 22.3999 16.0007 22.1563 16.1016C21.9126 16.2025 21.7044 16.3734 21.5579 16.5927C21.4114 16.8119 21.3332 17.0697 21.3332 17.3334C21.3332 17.687 21.4736 18.0262 21.7237 18.2762C21.9737 18.5263 22.3129 18.6667 22.6665 18.6667ZM15.9998 24.0001C16.2635 24.0001 16.5213 23.9219 16.7406 23.7754C16.9599 23.6289 17.1308 23.4206 17.2317 23.177C17.3326 22.9334 17.359 22.6653 17.3076 22.4066C17.2561 22.148 17.1291 21.9104 16.9426 21.7239C16.7562 21.5375 16.5186 21.4105 16.26 21.359C16.0013 21.3076 15.7332 21.334 15.4896 21.4349C15.246 21.5358 15.0377 21.7067 14.8912 21.926C14.7447 22.1453 14.6665 22.403 14.6665 22.6667C14.6665 23.0204 14.807 23.3595 15.057 23.6096C15.3071 23.8596 15.6462 24.0001 15.9998 24.0001ZM22.6665 24.0001C22.9302 24.0001 23.188 23.9219 23.4073 23.7754C23.6265 23.6289 23.7974 23.4206 23.8983 23.177C23.9993 22.9334 24.0257 22.6653 23.9742 22.4066C23.9228 22.148 23.7958 21.9104 23.6093 21.7239C23.4228 21.5375 23.1853 21.4105 22.9266 21.359C22.668 21.3076 22.3999 21.334 22.1563 21.4349C21.9126 21.5358 21.7044 21.7067 21.5579 21.926C21.4114 22.1453 21.3332 22.403 21.3332 22.6667C21.3332 23.0204 21.4736 23.3595 21.7237 23.6096C21.9737 23.8596 22.3129 24.0001 22.6665 24.0001ZM9.33317 18.6667C9.59688 18.6667 9.85467 18.5885 10.0739 18.442C10.2932 18.2955 10.4641 18.0873 10.565 17.8437C10.6659 17.6 10.6923 17.3319 10.6409 17.0733C10.5894 16.8147 10.4624 16.5771 10.276 16.3906C10.0895 16.2041 9.85193 16.0771 9.59329 16.0257C9.33465 15.9743 9.06656 16.0007 8.82293 16.1016C8.57929 16.2025 8.37105 16.3734 8.22454 16.5927C8.07804 16.8119 7.99984 17.0697 7.99984 17.3334C7.99984 17.687 8.14031 18.0262 8.39036 18.2762C8.64041 18.5263 8.97955 18.6667 9.33317 18.6667ZM25.3332 5.33341H23.9998V4.00008C23.9998 3.64646 23.8594 3.30732 23.6093 3.05727C23.3593 2.80722 23.0201 2.66675 22.6665 2.66675C22.3129 2.66675 21.9737 2.80722 21.7237 3.05727C21.4736 3.30732 21.3332 3.64646 21.3332 4.00008V5.33341H10.6665V4.00008C10.6665 3.64646 10.526 3.30732 10.276 3.05727C10.0259 2.80722 9.68679 2.66675 9.33317 2.66675C8.97955 2.66675 8.64041 2.80722 8.39036 3.05727C8.14031 3.30732 7.99984 3.64646 7.99984 4.00008V5.33341H6.6665C5.60564 5.33341 4.58822 5.75484 3.83808 6.50499C3.08793 7.25513 2.6665 8.27255 2.6665 9.33342V25.3334C2.6665 26.3943 3.08793 27.4117 3.83808 28.1618C4.58822 28.912 5.60564 29.3334 6.6665 29.3334H25.3332C26.394 29.3334 27.4115 28.912 28.1616 28.1618C28.9117 27.4117 29.3332 26.3943 29.3332 25.3334V9.33342C29.3332 8.27255 28.9117 7.25513 28.1616 6.50499C27.4115 5.75484 26.394 5.33341 25.3332 5.33341ZM26.6665 25.3334C26.6665 25.687 26.526 26.0262 26.276 26.2762C26.0259 26.5263 25.6868 26.6667 25.3332 26.6667H6.6665C6.31288 26.6667 5.97374 26.5263 5.7237 26.2762C5.47365 26.0262 5.33317 25.687 5.33317 25.3334V13.3334H26.6665V25.3334ZM26.6665 10.6667H5.33317V9.33342C5.33317 8.97979 5.47365 8.64065 5.7237 8.39061C5.97374 8.14056 6.31288 8.00008 6.6665 8.00008H25.3332C25.6868 8.00008 26.0259 8.14056 26.276 8.39061C26.526 8.64065 26.6665 8.97979 26.6665 9.33342V10.6667ZM9.33317 24.0001C9.59688 24.0001 9.85467 23.9219 10.0739 23.7754C10.2932 23.6289 10.4641 23.4206 10.565 23.177C10.6659 22.9334 10.6923 22.6653 10.6409 22.4066C10.5894 22.148 10.4624 21.9104 10.276 21.7239C10.0895 21.5375 9.85193 21.4105 9.59329 21.359C9.33465 21.3076 9.06656 21.334 8.82293 21.4349C8.57929 21.5358 8.37105 21.7067 8.22454 21.926C8.07804 22.1453 7.99984 22.403 7.99984 22.6667C7.99984 23.0204 8.14031 23.3595 8.39036 23.6096C8.64041 23.8596 8.97955 24.0001 9.33317 24.0001Z" fill="black"/>
</svg>
