<svg width="28" height="28" viewBox="0 0 28 28" fill="none" xmlns="http://www.w3.org/2000/svg">
<path d="M13.9998 0.666748C11.3628 0.666748 8.7849 1.44873 6.59224 2.91382C4.39958 4.37891 2.69062 6.46129 1.68145 8.89764C0.672281 11.334 0.408237 14.0149 0.922706 16.6013C1.43718 19.1877 2.70705 21.5635 4.57175 23.4282C6.43645 25.2929 8.81223 26.5627 11.3986 27.0772C13.9851 27.5917 16.6659 27.3276 19.1023 26.3185C21.5386 25.3093 23.621 23.6003 25.0861 21.4077C26.5512 19.215 27.3332 16.6372 27.3332 14.0001C27.3293 10.4651 25.9233 7.07592 23.4236 4.57628C20.924 2.07663 17.5349 0.67063 13.9998 0.666748ZM13.9998 24.6667C11.8902 24.6667 9.82788 24.0412 8.07376 22.8691C6.31964 21.697 4.95246 20.0311 4.14513 18.082C3.33779 16.133 3.12656 13.9882 3.53813 11.9191C3.94971 9.84999 4.96561 7.94937 6.45737 6.45761C7.94913 4.96585 9.84975 3.94995 11.9189 3.53837C13.988 3.1268 16.1327 3.33803 18.0818 4.14537C20.0309 4.9527 21.6968 6.31987 22.8689 8.074C24.0409 9.82812 24.6665 11.8904 24.6665 14.0001C24.663 16.828 23.538 19.539 21.5384 21.5387C19.5388 23.5383 16.8277 24.6632 13.9998 24.6667ZM13.9998 13.3334C13.6462 13.3334 13.3071 13.4739 13.057 13.7239C12.807 13.974 12.6665 14.3131 12.6665 14.6667V18.6667C12.6665 19.0204 12.807 19.3595 13.057 19.6096C13.3071 19.8596 13.6462 20.0001 13.9998 20.0001C14.3535 20.0001 14.6926 19.8596 14.9427 19.6096C15.1927 19.3595 15.3332 19.0204 15.3332 18.6667V14.6667C15.3332 14.3131 15.1927 13.974 14.9427 13.7239C14.6926 13.4739 14.3535 13.3334 13.9998 13.3334ZM13.9998 8.00008C13.6702 8.00008 13.348 8.09783 13.0739 8.28097C12.7998 8.4641 12.5862 8.7244 12.46 9.02894C12.3339 9.33349 12.3009 9.6686 12.3652 9.9919C12.4295 10.3152 12.5882 10.6122 12.8213 10.8453C13.0544 11.0783 13.3514 11.2371 13.6747 11.3014C13.998 11.3657 14.3331 11.3327 14.6376 11.2065C14.9422 11.0804 15.2025 10.8668 15.3856 10.5927C15.5688 10.3186 15.6665 9.99638 15.6665 9.66675C15.6665 9.22472 15.4909 8.8008 15.1784 8.48824C14.8658 8.17568 14.4419 8.00008 13.9998 8.00008Z" fill="white"/>
</svg>
