<svg width="32" height="32" viewBox="0 0 32 32" fill="none" xmlns="http://www.w3.org/2000/svg">
<path d="M15.9998 2.66675C13.3628 2.66675 10.7849 3.44873 8.59224 4.91382C6.39958 6.37891 4.69062 8.46129 3.68145 10.8976C2.67228 13.334 2.40824 16.0149 2.92271 18.6013C3.43718 21.1877 4.70705 23.5635 6.57175 25.4282C8.43645 27.2929 10.8122 28.5627 13.3986 29.0772C15.9851 29.5917 18.6659 29.3276 21.1023 28.3185C23.5386 27.3093 25.621 25.6003 27.0861 23.4077C28.5512 21.215 29.3332 18.6372 29.3332 16.0001C29.3293 12.4651 27.9233 9.07592 25.4236 6.57628C22.924 4.07663 19.5349 2.67063 15.9998 2.66675ZM15.9998 26.6667C13.8902 26.6667 11.8279 26.0412 10.0738 24.8691C8.31964 23.697 6.95246 22.0311 6.14513 20.082C5.33779 18.133 5.12656 15.9882 5.53813 13.9191C5.94971 11.85 6.96561 9.94937 8.45737 8.45761C9.94913 6.96585 11.8497 5.94995 13.9189 5.53837C15.988 5.1268 18.1327 5.33803 20.0818 6.14537C22.0309 6.9527 23.6968 8.31987 24.8689 10.074C26.0409 11.8281 26.6665 13.8904 26.6665 16.0001C26.663 18.828 25.538 21.539 23.5384 23.5387C21.5388 25.5383 18.8277 26.6632 15.9998 26.6667ZM15.9998 15.3334C15.6462 15.3334 15.3071 15.4739 15.057 15.7239C14.807 15.974 14.6665 16.3131 14.6665 16.6667V20.6667C14.6665 21.0204 14.807 21.3595 15.057 21.6096C15.3071 21.8596 15.6462 22.0001 15.9998 22.0001C16.3535 22.0001 16.6926 21.8596 16.9427 21.6096C17.1927 21.3595 17.3332 21.0204 17.3332 20.6667V16.6667C17.3332 16.3131 17.1927 15.974 16.9427 15.7239C16.6926 15.4739 16.3535 15.3334 15.9998 15.3334ZM15.9998 10.0001C15.6702 10.0001 15.348 10.0978 15.0739 10.281C14.7998 10.4641 14.5862 10.7244 14.46 11.0289C14.3339 11.3335 14.3009 11.6686 14.3652 11.9919C14.4295 12.3152 14.5882 12.6122 14.8213 12.8453C15.0544 13.0783 15.3514 13.2371 15.6747 13.3014C15.998 13.3657 16.3331 13.3327 16.6376 13.2065C16.9422 13.0804 17.2025 12.8668 17.3856 12.5927C17.5688 12.3186 17.6665 11.9964 17.6665 11.6667C17.6665 11.2247 17.4909 10.8008 17.1784 10.4882C16.8658 10.1757 16.4419 10.0001 15.9998 10.0001Z" fill="black"/>
</svg>
