<svg width="32" height="32" viewBox="0 0 32 32" fill="none" xmlns="http://www.w3.org/2000/svg">
<path d="M27.0692 11.8683C26.9437 11.9407 23.9559 13.469 23.9559 16.8578C24.0967 20.7224 27.7263 22.0777 27.7886 22.0777C27.7263 22.1501 27.2406 23.924 25.8018 25.7834C24.66 27.3851 23.3926 29 21.4681 29C19.6375 29 18.9804 27.9325 16.8681 27.9325C14.5998 27.9325 13.9579 29 12.2212 29C10.2967 29 8.93546 27.2986 7.73138 25.7119C6.16709 23.6352 4.83749 20.3763 4.79056 17.2471C4.75892 15.589 5.10382 13.9591 5.97933 12.5746C7.21505 10.6418 9.42118 9.32976 11.8304 9.2865C13.6763 9.22913 15.3192 10.4546 16.4457 10.4546C17.5253 10.4546 19.5437 9.2865 21.8273 9.2865C22.813 9.28744 25.4416 9.56113 27.0692 11.8683ZM16.2896 8.95543C15.961 7.44118 16.8681 5.92693 17.713 4.961C18.7926 3.79287 20.4977 3 21.9682 3C22.062 4.51425 21.4671 5.99935 20.4039 7.08096C19.4498 8.2491 17.8069 9.12849 16.2896 8.95543Z" fill="#17181A"/>
</svg>
