<svg width="642" height="360" viewBox="0 0 642 360" fill="none" xmlns="http://www.w3.org/2000/svg">
<rect width="642" height="360" fill="#F0F1F3"/>
<g clip-path="url(#clip0_1257_8164)">
<path d="M289 156C289 151.588 292.588 148 297 148H345C349.413 148 353 151.588 353 156L353 204C353 208.412 349.412 212 345 212H297C292.588 212 289 208.412 289 204L289 156ZM329.475 177.5C328.913 176.675 327.988 176.188 327 176.188C326.013 176.188 325.075 176.675 324.525 177.5L313.65 193.45L310.338 189.312C309.763 188.6 308.9 188.188 308 188.188C307.1 188.188 306.225 188.6 305.663 189.312L297.663 199.312C296.938 200.212 296.8 201.45 297.3 202.487C297.8 203.525 298.85 204.188 300 204.188H342C343.113 204.188 344.138 203.575 344.65 202.588C345.163 201.6 345.1 200.413 344.475 199.5L329.475 177.5ZM303 172C304.592 172 306.118 171.368 307.243 170.243C308.368 169.117 309 167.591 309 166C309 164.409 308.368 162.883 307.243 161.757C306.118 160.632 304.592 160 303 160C301.409 160 299.883 160.632 298.758 161.757C297.633 162.883 297 164.409 297 166C297 167.591 297.633 169.117 298.758 170.243C299.883 171.368 301.409 172 303 172Z" fill="#C1C2C3"/>
</g>
<defs>
<clipPath id="clip0_1257_8164">
<rect width="64" height="64" fill="white" transform="translate(289 148)"/>
</clipPath>
</defs>
</svg>
