<svg width="58" height="78" viewBox="0 0 58 78" fill="none" xmlns="http://www.w3.org/2000/svg">
<rect width="58" height="78" rx="9" fill="#F0F1F3"/>
<g clip-path="url(#clip0_1230_9924)">
<path d="M29 40.625C30.9394 40.625 32.7994 39.8546 34.1707 38.4832C35.5421 37.1119 36.3125 35.2519 36.3125 33.3125C36.3125 31.3731 35.5421 29.5131 34.1707 28.1418C32.7994 26.7704 30.9394 26 29 26C27.0606 26 25.2006 26.7704 23.8293 28.1418C22.4579 29.5131 21.6875 31.3731 21.6875 33.3125C21.6875 35.2519 22.4579 37.1119 23.8293 38.4832C25.2006 39.8546 27.0606 40.625 29 40.625ZM24.191 42.25C19.6664 42.25 16 45.9164 16 50.441C16 51.3043 16.7008 52 17.559 52H40.441C41.3043 52 42 51.2992 42 50.441C42 45.9164 38.3336 42.25 33.809 42.25H24.191Z" fill="#C1C2C3"/>
</g>
<defs>
<clipPath id="clip0_1230_9924">
<rect width="26" height="26" fill="white" transform="translate(16 26)"/>
</clipPath>
</defs>
</svg>
