<svg width="58" height="78" viewBox="0 0 58 78" fill="none" xmlns="http://www.w3.org/2000/svg">
<rect width="58" height="78" rx="9" fill="#797A7B"/>
<path d="M21.0636 52.24V45.31H19.2156V48.152H17.1576C16.7796 46.766 15.4916 45.842 13.8396 45.842C11.9076 45.842 10.4516 47.13 10.4516 48.922C10.4516 50.714 11.9076 52.002 13.8396 52.002C15.4916 52.002 16.8356 51.036 17.1716 49.65H19.2156V52.24H21.0636ZM13.8396 50.462C12.8876 50.462 12.2156 49.888 12.2156 48.922C12.2156 47.956 12.8876 47.382 13.8396 47.382C14.7916 47.382 15.4776 47.956 15.4776 48.922C15.4776 49.888 14.7916 50.462 13.8396 50.462ZM21.0636 52.8H19.2296V54.032H14.3576V52.8H12.5236V58.05H21.0636V52.8ZM14.3576 55.432H19.2296V56.594H14.3576V55.432ZM34.8385 56.79V55.278H29.9105V53.36H33.8165V51.876H26.3405V50.434H33.5225V46.136H24.4925V47.606H31.7025V48.992H24.5065V53.36H28.0625V55.278H23.1625V56.79H34.8385ZM37.3995 52.73H46.4715V51.26H39.2475V47.872H46.3735V46.374H37.3995V52.73ZM47.7175 56.664V55.152H36.0415V56.664H47.7175Z" fill="white"/>
<g clip-path="url(#clip0_1230_15653)">
<path d="M29 29.125C30.3427 29.125 31.6303 28.5916 32.5797 27.6422C33.5291 26.6928 34.0625 25.4052 34.0625 24.0625C34.0625 22.7198 33.5291 21.4322 32.5797 20.4828C31.6303 19.5334 30.3427 19 29 19C27.6573 19 26.3697 19.5334 25.4203 20.4828C24.4709 21.4322 23.9375 22.7198 23.9375 24.0625C23.9375 25.4052 24.4709 26.6928 25.4203 27.6422C26.3697 28.5916 27.6573 29.125 29 29.125ZM25.6707 30.25C22.5383 30.25 20 32.7883 20 35.9207C20 36.5184 20.4852 37 21.0793 37H36.9207C37.5184 37 38 36.5148 38 35.9207C38 32.7883 35.4617 30.25 32.3293 30.25H25.6707Z" fill="white"/>
</g>
<defs>
<clipPath id="clip0_1230_15653">
<rect width="18" height="18" fill="white" transform="translate(20 19)"/>
</clipPath>
</defs>
</svg>
