<svg width="32" height="32" viewBox="0 0 32 32" fill="none" xmlns="http://www.w3.org/2000/svg">
<path d="M6.04747 28.9997C5.79814 29.0037 5.55026 28.9615 5.3166 28.8754L17.0895 17.2286L20.9865 21.0868L7.45806 28.6037C7.02952 28.8521 6.54406 28.9884 6.04747 28.9997ZM4.346 28.0385C4.10668 27.6098 3.98758 27.1257 4.00103 26.6363V5.37938C3.99905 5.05671 4.04838 4.73573 4.1472 4.42821L16.1818 16.3324L4.34161 28.0413L4.346 28.0385ZM22.1486 20.4377L17.9958 16.3338L22.5755 11.8063L26.6435 14.0657C27.4244 14.4113 27.9469 15.1569 28 16.0013C27.9472 16.8466 27.424 17.5929 26.642 17.9384L22.1486 20.4377ZM17.0895 15.4318L4.89854 3.37729C5.23326 3.13252 5.63849 3.00029 6.05478 3C6.54643 3.01726 7.02607 3.15484 7.45075 3.40042L21.4119 11.1602L17.091 15.4318H17.0895Z" fill="#17181A"/>
</svg>
